<svg xmlns="http://www.w3.org/2000/svg" width="16.085" height="16.515" viewBox="0 0 16.085 16.515">
  <g id="Group_14599" data-name="Group 14599" transform="translate(-1247.52 -262.06)">
    <g id="Group_6805" data-name="Group 6805" transform="translate(1247.521 263.161)">
      <g id="Group_6804" data-name="Group 6804">
        <path id="Path_5466" data-name="Path 5466" d="M13.3,41.251a.586.586,0,0,0-.578.593v5.929a.586.586,0,0,1-.578.593H1.735a.586.586,0,0,1-.578-.593V35.916a.586.586,0,0,1,.578-.593H8.677a.593.593,0,0,0,0-1.186H1.735A1.757,1.757,0,0,0,0,35.916V47.773a1.757,1.757,0,0,0,1.735,1.779H12.148a1.757,1.757,0,0,0,1.735-1.779V41.844A.586.586,0,0,0,13.3,41.251Z" transform="translate(0 -34.137)" fill="#6e6e6e"/>
      </g>
    </g>
    <g id="Group_6807" data-name="Group 6807" transform="translate(1251.495 262.06)">
      <g id="Group_6806" data-name="Group 6806" transform="translate(0 0)">
        <path id="Path_5467" data-name="Path 5467" d="M113.9.621a2.107,2.107,0,0,0-2.981,0l-7.251,7.25a.557.557,0,0,0-.133.215l-1.1,3.3a.551.551,0,0,0,.522.724.559.559,0,0,0,.174-.028l3.3-1.1a.551.551,0,0,0,.215-.133L113.9,3.6A2.107,2.107,0,0,0,113.9.621Zm-.779,2.2-7.156,7.156-2.138.714.712-2.135L111.7,1.4a1.006,1.006,0,1,1,1.424,1.421Z" transform="translate(-102.409 -0.004)" fill="#6e6e6e"/>
      </g>
    </g>
  </g>
</svg>
