<svg xmlns="http://www.w3.org/2000/svg" width="16.671" height="19.449" viewBox="0 0 16.671 19.449">
  <g id="logout" transform="translate(-4.5 -2.25)">
    <path id="Path_1488" data-name="Path 1488" d="M5.889,21.7h8.335a1.39,1.39,0,0,0,1.389-1.389V18.226H14.225V20.31H5.889V3.639h8.335V5.723h1.389V3.639A1.39,1.39,0,0,0,14.225,2.25H5.889A1.39,1.39,0,0,0,4.5,3.639V20.31A1.39,1.39,0,0,0,5.889,21.7Z" fill="#737373"/>
    <path id="Path_1489" data-name="Path 1489" d="M18.6,18.6l2.491-2.491H11.25V14.723h9.844L18.6,12.232l.982-.982,4.168,4.168-4.168,4.168Z" transform="translate(-2.582 -3.443)" fill="#737373"/>
  </g>
</svg>
